<?xml version="1.0" encoding="utf-8"?>
<!-- Generator: Adobe Illustrator 19.2.1, SVG Export Plug-In . SVG Version: 6.00 Build 0)  -->
<svg version="1.1" id="Layer_1" xmlns="http://www.w3.org/2000/svg" xmlns:xlink="http://www.w3.org/1999/xlink" x="0px" y="0px"
	 viewBox="0 0 35 35" style="enable-background:new 0 0 35 35;" xml:space="preserve">
<style type="text/css">
</style>
<g>
	<g>
		<path class="st0" d="M23.5,29c-1.6,0-2.9,1.3-2.9,3s1.3,3,2.9,3c1.6,0,2.9-1.3,2.9-3S25.1,29,23.5,29z M23.5,33.4
			c-0.8,0-1.4-0.7-1.4-1.5c0-0.8,0.7-1.5,1.4-1.5c0.7,0,1.4,0.7,1.4,1.5C24.9,32.7,24.3,33.4,23.5,33.4z"/>
		<path class="st0" d="M7.8,29c-1.6,0-2.9,1.3-2.9,3s1.3,3,2.9,3c1.6,0,2.9-1.3,2.9-3S9.3,29,7.8,29z M7.8,33.4
			c-0.8,0-1.4-0.7-1.4-1.5c0-0.8,0.7-1.5,1.4-1.5c0.8,0,1.4,0.7,1.4,1.5C9.2,32.8,8.5,33.4,7.8,33.4z"/>
		<path class="st0" d="M30.5,0.1l-1.2,4.5H0.3l5.4,15.9c-1.8,0.3-3.1,1.8-3.1,3.7c0,2.1,1.6,3.8,3.7,3.8h20.1v-1.4H6.2
			c-1.3,0-2.2-1-2.2-2.4c0-1.3,1-2.4,2.2-2.4h20.1h0.1l5.3-20.4h3V0.1L30.5,0.1L30.5,0.1z M25.3,20.5H7.2L2.3,6.1h26.6L25.3,20.5
			L25.3,20.5z"/>
		<rect x="9.7" y="9.6" class="st0" width="1.5" height="8.4"/>
		<rect x="14.9" y="9.6" class="st0" width="1.5" height="8.4"/>
		<rect x="20.2" y="9.6" class="st0" width="1.5" height="8.4"/>
	</g>
</g>
</svg>
