<?xml version="1.0" encoding="utf-8"?>
<!-- Generator: Adobe Illustrator 19.2.1, SVG Export Plug-In . SVG Version: 6.00 Build 0)  -->
<svg version="1.1" id="Capa_1" xmlns="http://www.w3.org/2000/svg" xmlns:xlink="http://www.w3.org/1999/xlink" x="0px" y="0px"
	 viewBox="0 0 35 35" style="enable-background:new 0 0 35 35;" xml:space="preserve">
<style type="text/css">
</style>
<g>
	<g id="Sign_Out">
		<path class="st0" d="M16.4,32.8H2.2V2.2h14.2c0.6,0,1.1-0.5,1.1-1.1S17,0,16.4,0H1.1C0.5,0,0,0.5,0,1.1v32.8C0,34.5,0.5,35,1.1,35
			h15.3c0.6,0,1.1-0.5,1.1-1.1C17.5,33.3,17,32.8,16.4,32.8z"/>
		<path class="st0" d="M34.7,16.7l-7.5-7.7c-0.4-0.4-1.1-0.4-1.5,0c-0.4,0.4-0.4,1.1,0,1.6l5.7,5.8H8.8c-0.6,0-1.1,0.5-1.1,1.1
			c0,0.6,0.5,1.1,1.1,1.1h22.5l-5.7,5.8c-0.4,0.4-0.4,1.1,0,1.6c0.4,0.4,1.1,0.4,1.5,0l7.5-7.7C35.1,17.9,35.1,17.2,34.7,16.7z"/>
	</g>
</g>
</svg>
