<?xml version="1.0" encoding="utf-8"?>
<!-- Generator: Adobe Illustrator 19.2.1, SVG Export Plug-In . SVG Version: 6.00 Build 0)  -->
<svg version="1.1" id="Capa_1" xmlns="http://www.w3.org/2000/svg" xmlns:xlink="http://www.w3.org/1999/xlink" x="0px" y="0px"
	 viewBox="0 0 39 35" style="enable-background:new 0 0 39 35;" xml:space="preserve">
<style type="text/css">

</style>
<g>
	<g>
		<path class="st0" d="M1.1,21.5c0.1,0,0.2,0,0.2,0c0.3,0,0.7-0.2,0.8-0.5c3.7-6.5,7.5-6.9,11.8-6.9V18c0,0.4,0.2,0.7,0.5,0.8
			c0.3,0.2,0.7,0.1,1-0.1l11.9-8.6c0.2-0.2,0.4-0.5,0.4-0.8c0-0.3-0.1-0.6-0.4-0.8L15.5,0.2c-0.3-0.2-0.7-0.2-1-0.1
			C14.2,0.3,14,0.6,14,1v3.9C8.5,5.4,4.6,7.5,2.5,11.2c-1.9,3.2-2.1,6.9-2.1,9.4C0.4,21,0.7,21.4,1.1,21.5z M15,6.7
			c0.5,0,0.9-0.4,0.9-1v-3l9.3,6.7l-9.3,6.7v-3c0-0.2-0.1-0.5-0.3-0.7c-0.2-0.2-0.4-0.3-0.7-0.3l0,0c-4.2,0-8.5,0-12.5,4.9
			C3.2,12.2,5.8,7.2,15,6.7z"/>
		<path class="st0" d="M31.9,10.4h4.9v22.6h-27V19.4c0-0.5-0.4-1-1-1s-1,0.4-1,1V34c0,0.5,0.4,1,1,1h28.9c0.5,0,1-0.4,1-1V9.5
			c0-0.5-0.4-1-1-1h-5.8c-0.5,0-1,0.4-1,1C30.9,10,31.3,10.4,31.9,10.4z"/>
	</g>
</g>
</svg>
