<?xml version="1.0" encoding="utf-8"?>
<!-- Generator: Adobe Illustrator 19.2.1, SVG Export Plug-In . SVG Version: 6.00 Build 0)  -->
<svg version="1.1" id="Capa_1" xmlns="http://www.w3.org/2000/svg" xmlns:xlink="http://www.w3.org/1999/xlink" x="0px" y="0px"
	 viewBox="0 0 305.7 305.7" style="enable-background:new 0 0 305.7 305.7;" xml:space="preserve">
<style type="text/css">
</style>
<g>
	<path class="st0" d="M166.4,8.1L0,174.5l130.8,130.8l164.4-164.4l2-2l8.5-138.5L166.4,8.1z M282.6,132.3L130.8,284.1L21.2,174.5
		L173,22.7l116.7-6.4L282.6,132.3z"/>
	<path class="st0" d="M235.5,99.8c8,0,15.5-3.1,21.2-8.8c11.7-11.7,11.7-30.7,0-42.4c-5.7-5.7-13.2-8.8-21.2-8.8s-15.5,3.1-21.2,8.8
		c-5.7,5.7-8.8,13.2-8.8,21.2s3.1,15.5,8.8,21.2C219.9,96.7,227.5,99.8,235.5,99.8z M224.9,59.2c2.8-2.8,6.6-4.4,10.6-4.4
		s7.8,1.6,10.6,4.4c5.8,5.8,5.8,15.4,0,21.2c-2.8,2.8-6.6,4.4-10.6,4.4s-7.8-1.6-10.6-4.4c-2.8-2.8-4.4-6.6-4.4-10.6
		S222,62.1,224.9,59.2z"/>
</g>
</svg>
