<?xml version="1.0" ?><svg id="Layer_1" style="enable-background:new 0 0 100 100;" version="1.1" viewBox="0 0 100 100" xml:space="preserve" xmlns="http://www.w3.org/2000/svg" xmlns:xlink="http://www.w3.org/1999/xlink"><g><path d="M86.188,37.586h-4.046c-3.511-9.096-10.759-16.343-19.854-19.854v-3.922c0-2.101-1.71-3.811-3.812-3.811H41.273   c-2.101,0-3.812,1.71-3.812,3.811v3.922c-9.096,3.511-16.343,10.758-19.854,19.854h-3.796c-2.101,0-3.811,1.709-3.811,3.811v17.204   c0,2.101,1.71,3.812,3.811,3.812h3.795c1.985,5.143,5.16,9.697,9.194,13.318l-1.945,13.124c-0.043,0.288,0.042,0.58,0.232,0.8   c0.189,0.22,0.466,0.347,0.757,0.347h48.143c0.291,0,0.567-0.127,0.757-0.347c0.19-0.22,0.275-0.512,0.232-0.8l-1.955-13.187   c4-3.61,7.148-8.142,9.121-13.255h4.045c2.102,0,3.812-1.71,3.812-3.812V41.397C90,39.296,88.29,37.586,86.188,37.586z    M39.462,13.811c0-0.999,0.812-1.811,1.812-1.811h17.203c0.999,0,1.812,0.812,1.812,1.811v3.214   c-3.288-1.041-6.785-1.605-10.413-1.605s-7.125,0.564-10.413,1.605V13.811z M16.899,60.413h-3.087C12.812,60.413,12,59.6,12,58.601   V41.397c0-0.999,0.812-1.811,1.811-1.811h3.088c-1.041,3.288-1.606,6.786-1.606,10.414C15.294,53.628,15.858,57.125,16.899,60.413z    M27.004,88.001L28.6,77.232c5.872,4.598,13.256,7.349,21.275,7.349c8.053,0,15.465-2.774,21.348-7.407l1.605,10.826H27.004z    M49.875,82.581C31.91,82.581,17.294,67.965,17.294,50c0-17.965,14.616-32.581,32.581-32.581S82.456,32.035,82.456,50   C82.456,67.965,67.84,82.581,49.875,82.581z M88,58.601c0,0.999-0.812,1.812-1.812,1.812h-3.337   c1.04-3.288,1.605-6.785,1.605-10.412c0-3.628-0.565-7.126-1.605-10.414h3.338c0.999,0,1.812,0.812,1.812,1.811V58.601z"/><path d="M50.979,29.244v-2.098c0-0.552-0.447-1-1-1s-1,0.448-1,1v2.101C38.282,29.769,29.7,38.39,29.241,49.104h-2.22   c-0.553,0-1,0.448-1,1c0,0.552,0.447,1,1,1h2.231c0.562,10.617,9.1,19.13,19.728,19.649v2.309c0,0.552,0.447,1,1,1s1-0.448,1-1   v-2.307c10.647-0.499,19.207-9.02,19.769-19.651h2.189c0.553,0,1-0.448,1-1c0-0.552-0.447-1-1-1h-2.178   C70.299,38.376,61.696,29.747,50.979,29.244z M48.979,68.753c-9.526-0.515-17.171-8.134-17.728-17.649h4.664   c0.541,6.944,6.11,12.484,13.064,12.984V68.753z M48.979,62.088c-5.852-0.491-10.534-5.143-11.064-10.984h11.064V62.088z    M48.979,49.104H37.905c0.437-5.938,5.153-10.697,11.075-11.193V49.104z M48.979,35.911c-7.024,0.505-12.631,6.153-13.075,13.193   h-4.664c0.456-9.612,8.144-17.339,17.739-17.858V35.911z M50.979,37.909c5.94,0.478,10.678,5.244,11.116,11.195H50.979V37.909z    M50.979,51.104h11.105c-0.531,5.855-5.234,10.514-11.105,10.986V51.104z M50.979,68.755V64.09   c6.973-0.481,12.563-6.029,13.105-12.986h4.664C68.191,60.632,60.524,68.26,50.979,68.755z M64.095,49.104   c-0.445-7.054-6.073-12.709-13.116-13.195v-4.665c9.614,0.499,17.323,8.235,17.78,17.86H64.095z"/></g></svg>